<svg width="30" height="32" viewBox="0 0 30 32" fill="none" xmlns="http://www.w3.org/2000/svg">
<path d="M15 0C6.91337 0 0.333374 6.58 0.333374 14.6667V22.6667C0.333374 24.872 2.12804 26.6667 4.33337 26.6667H8.33337C9.06937 26.6667 9.66671 26.0693 9.66671 25.3333V16C9.66671 15.264 9.06937 14.6667 8.33337 14.6667H3.00004C3.00004 8.05067 8.38404 2.66667 15 2.66667C21.616 2.66667 27 8.05067 27 14.6667H21.6667C20.9307 14.6667 20.3334 15.264 20.3334 16V25.3333C20.3334 26.0693 20.9307 26.6667 21.6667 26.6667H25.6667C26.136 26.6667 26.5814 26.5707 27 26.4213C27 28.348 25.672 29.3333 24.3334 29.3333H17.6667C16.9307 29.3333 16.3334 29.9307 16.3334 30.6667C16.3334 31.4027 16.9307 32 17.6667 32H24.3334C27.2747 32 29.6667 29.608 29.6667 26.6667V14.6667C29.6667 6.58 23.0867 0 15 0Z" fill="#676C79"/>
</svg>
